<svg width="320" height="320" xmlns="http://www.w3.org/2000/svg" viewBox="0 0 320 320"><rect width="10" height="10" rx="0" fill="#f201db" x="0" y="0"></rect><rect width="10" height="10" rx="0" fill="#f201db" x="10" y="0"></rect><rect width="10" height="10" rx="0" fill="#f201db" x="20" y="0"></rect><rect width="10" height="10" rx="0" fill="#f201db" x="30" y="0"></rect><rect width="10" height="10" rx="0" fill="#f201db" x="40" y="0"></rect><rect width="10" height="10" rx="0" fill="#f201db" x="50" y="0"></rect><rect width="10" height="10" rx="0" fill="#f201db" x="60" y="0"></rect><rect width="10" height="10" rx="0" fill="#f201db" x="70" y="0"></rect><rect width="10" height="10" rx="0" fill="#f201db" x="80" y="0"></rect><rect width="10" height="10" rx="0" fill="#f201db" x="90" y="0"></rect><rect width="10" height="10" rx="0" fill="#f201db" x="100" y="0"></rect><rect width="10" height="10" rx="0" fill="#f201db" x="110" y="0"></rect><rect width="10" height="10" rx="0" fill="#f201db" x="120" y="0"></rect><rect width="10" height="10" rx="0" fill="#f201db" x="130" y="0"></rect><rect width="10" height="10" rx="0" fill="#f201db" x="140" y="0"></rect><rect width="10" height="10" rx="0" fill="#f201db" x="150" y="0"></rect><rect width="10" height="10" rx="0" fill="#f201db" x="160" y="0"></rect><rect width="10" height="10" rx="0" fill="#00e5ff" x="180" y="0"></rect><rect width="10" height="10" rx="0" fill="#00e5ff" x="190" y="0"></rect><rect width="10" height="10" rx="0" fill="#00e5ff" x="200" y="0"></rect><rect width="10" height="10" rx="0" fill="#00e5ff" x="210" y="0"></rect><rect width="10" height="10" rx="0" fill="#00e5ff" x="220" y="0"></rect><rect width="10" height="10" rx="0" fill="#f201db" x="0" y="10"></rect><rect width="10" height="10" rx="0" fill="#f201db" x="10" y="10"></rect><rect width="10" height="10" rx="0" fill="#f201db" x="20" y="10"></rect><rect width="10" height="10" rx="0" fill="#f201db" x="30" y="10"></rect><rect width="10" height="10" rx="0" fill="#f201db" x="40" y="10"></rect><rect width="10" height="10" rx="0" fill="#f201db" x="50" y="10"></rect><rect width="10" height="10" rx="0" fill="#f201db" x="60" y="10"></rect><rect width="10" height="10" rx="0" fill="#f201db" x="70" y="10"></rect><rect width="10" height="10" rx="0" fill="#f201db" x="80" y="10"></rect><rect width="10" height="10" rx="0" fill="#f201db" x="90" y="10"></rect><rect width="10" height="10" rx="0" fill="#f201db" x="100" y="10"></rect><rect width="10" height="10" rx="0" fill="#f201db" x="110" y="10"></rect><rect width="10" height="10" rx="0" fill="#f201db" x="120" y="10"></rect><rect width="10" height="10" rx="0" fill="#f201db" x="130" y="10"></rect><rect width="10" height="10" rx="0" fill="#f201db" x="140" y="10"></rect><rect width="10" height="10" rx="0" fill="#f201db" x="150" y="10"></rect><rect width="10" height="10" rx="0" fill="#f201db" x="160" y="10"></rect><rect width="10" height="10" rx="0" fill="#00e5ff" x="180" y="10"></rect><rect width="10" height="10" rx="0" fill="#00e5ff" x="190" y="10"></rect><rect width="10" height="10" rx="0" fill="#00e5ff" x="200" y="10"></rect><rect width="10" height="10" rx="0" fill="#00e5ff" x="210" y="10"></rect><rect width="10" height="10" rx="0" fill="#00e5ff" x="220" y="10"></rect><rect width="10" height="10" rx="0" fill="#f201db" x="0" y="20"></rect><rect width="10" height="10" rx="0" fill="#f201db" x="10" y="20"></rect><rect width="10" height="10" rx="0" fill="#f201db" x="20" y="20"></rect><rect width="10" height="10" rx="0" fill="#f201db" x="30" y="20"></rect><rect width="10" height="10" rx="0" fill="#f201db" x="40" y="20"></rect><rect width="10" height="10" rx="0" fill="#f201db" x="50" y="20"></rect><rect width="10" height="10" rx="0" fill="#f201db" x="60" y="20"></rect><rect width="10" height="10" rx="0" fill="#f201db" x="70" y="20"></rect><rect width="10" height="10" rx="0" fill="#f201db" x="80" y="20"></rect><rect width="10" height="10" rx="0" fill="#f201db" x="90" y="20"></rect><rect width="10" height="10" rx="0" fill="#f201db" x="100" y="20"></rect><rect width="10" height="10" rx="0" fill="#f201db" x="110" y="20"></rect><rect width="10" height="10" rx="0" fill="#f201db" x="120" y="20"></rect><rect width="10" height="10" rx="0" fill="#f201db" x="130" y="20"></rect><rect width="10" height="10" rx="0" fill="#f201db" x="140" y="20"></rect><rect width="10" height="10" rx="0" fill="#f201db" x="150" y="20"></rect><rect width="10" height="10" rx="0" fill="#f201db" x="160" y="20"></rect><rect width="10" height="10" rx="0" fill="#00e5ff" x="180" y="20"></rect><rect width="10" height="10" rx="0" fill="#00e5ff" x="190" y="20"></rect><rect width="10" height="10" rx="0" fill="#00e5ff" x="200" y="20"></rect><rect width="10" height="10" rx="0" fill="#00e5ff" x="210" y="20"></rect><rect width="10" height="10" rx="0" fill="#00e5ff" x="220" y="20"></rect><rect width="10" height="10" rx="0" fill="#f201db" x="0" y="30"></rect><rect width="10" height="10" rx="0" fill="#f201db" x="10" y="30"></rect><rect width="10" height="10" rx="0" fill="#f201db" x="20" y="30"></rect><rect width="10" height="10" rx="0" fill="#f201db" x="30" y="30"></rect><rect width="10" height="10" rx="0" fill="#f201db" x="40" y="30"></rect><rect width="10" height="10" rx="0" fill="#f201db" x="50" y="30"></rect><rect width="10" height="10" rx="0" fill="#f201db" x="60" y="30"></rect><rect width="10" height="10" rx="0" fill="#f201db" x="70" y="30"></rect><rect width="10" height="10" rx="0" fill="#f201db" x="80" y="30"></rect><rect width="10" height="10" rx="0" fill="#f201db" x="90" y="30"></rect><rect width="10" height="10" rx="0" fill="#f201db" x="100" y="30"></rect><rect width="10" height="10" rx="0" fill="#f201db" x="110" y="30"></rect><rect width="10" height="10" rx="0" fill="#f201db" x="120" y="30"></rect><rect width="10" height="10" rx="0" fill="#f201db" x="130" y="30"></rect><rect width="10" height="10" rx="0" fill="#f201db" x="140" y="30"></rect><rect width="10" height="10" rx="0" fill="#f201db" x="150" y="30"></rect><rect width="10" height="10" rx="0" fill="#f201db" x="160" y="30"></rect><rect width="10" height="10" rx="0" fill="#00e5ff" x="180" y="30"></rect><rect width="10" height="10" rx="0" fill="#00e5ff" x="190" y="30"></rect><rect width="10" height="10" rx="0" fill="#00e5ff" x="200" y="30"></rect><rect width="10" height="10" rx="0" fill="#00e5ff" x="210" y="30"></rect><rect width="10" height="10" rx="0" fill="#00e5ff" x="220" y="30"></rect><rect width="10" height="10" rx="0" fill="#f201db" x="0" y="40"></rect><rect width="10" height="10" rx="0" fill="#f201db" x="10" y="40"></rect><rect width="10" height="10" rx="0" fill="#f201db" x="20" y="40"></rect><rect width="10" height="10" rx="0" fill="#f201db" x="30" y="40"></rect><rect width="10" height="10" rx="0" fill="#f201db" x="40" y="40"></rect><rect width="10" height="10" rx="0" fill="#f201db" x="50" y="40"></rect><rect width="10" height="10" rx="0" fill="#f201db" x="60" y="40"></rect><rect width="10" height="10" rx="0" fill="#f201db" x="70" y="40"></rect><rect width="10" height="10" rx="0" fill="#f201db" x="80" y="40"></rect><rect width="10" height="10" rx="0" fill="#f201db" x="90" y="40"></rect><rect width="10" height="10" rx="0" fill="#f201db" x="100" y="40"></rect><rect width="10" height="10" rx="0" fill="#f201db" x="110" y="40"></rect><rect width="10" height="10" rx="0" fill="#f201db" x="120" y="40"></rect><rect width="10" height="10" rx="0" fill="#f201db" x="130" y="40"></rect><rect width="10" height="10" rx="0" fill="#f201db" x="140" y="40"></rect><rect width="10" height="10" rx="0" fill="#f201db" x="150" y="40"></rect><rect width="10" height="10" rx="0" fill="#f201db" x="160" y="40"></rect><rect width="10" height="10" rx="0" fill="#00e5ff" x="180" y="40"></rect><rect width="10" height="10" rx="0" fill="#00e5ff" x="190" y="40"></rect><rect width="10" height="10" rx="0" fill="#00e5ff" x="200" y="40"></rect><rect width="10" height="10" rx="0" fill="#00e5ff" x="210" y="40"></rect><rect width="10" height="10" rx="0" fill="#00e5ff" x="220" y="40"></rect><rect width="10" height="10" rx="0" fill="#f201db" x="0" y="50"></rect><rect width="10" height="10" rx="0" fill="#f201db" x="10" y="50"></rect><rect width="10" height="10" rx="0" fill="#f201db" x="20" y="50"></rect><rect width="10" height="10" rx="0" fill="#f201db" x="30" y="50"></rect><rect width="10" height="10" rx="0" fill="#f201db" x="40" y="50"></rect><rect width="10" height="10" rx="0" fill="#f201db" x="120" y="50"></rect><rect width="10" height="10" rx="0" fill="#f201db" x="130" y="50"></rect><rect width="10" height="10" rx="0" fill="#f201db" x="140" y="50"></rect><rect width="10" height="10" rx="0" fill="#f201db" x="150" y="50"></rect><rect width="10" height="10" rx="0" fill="#f201db" x="160" y="50"></rect><rect width="10" height="10" rx="0" fill="#00e5ff" x="180" y="50"></rect><rect width="10" height="10" rx="0" fill="#00e5ff" x="190" y="50"></rect><rect width="10" height="10" rx="0" fill="#00e5ff" x="200" y="50"></rect><rect width="10" height="10" rx="0" fill="#00e5ff" x="210" y="50"></rect><rect width="10" height="10" rx="0" fill="#00e5ff" x="220" y="50"></rect><rect width="10" height="10" rx="0" fill="#f201db" x="0" y="60"></rect><rect width="10" height="10" rx="0" fill="#f201db" x="10" y="60"></rect><rect width="10" height="10" rx="0" fill="#f201db" x="20" y="60"></rect><rect width="10" height="10" rx="0" fill="#f201db" x="30" y="60"></rect><rect width="10" height="10" rx="0" fill="#f201db" x="40" y="60"></rect><rect width="10" height="10" rx="0" fill="#f201db" x="120" y="60"></rect><rect width="10" height="10" rx="0" fill="#f201db" x="130" y="60"></rect><rect width="10" height="10" rx="0" fill="#f201db" x="140" y="60"></rect><rect width="10" height="10" rx="0" fill="#f201db" x="150" y="60"></rect><rect width="10" height="10" rx="0" fill="#f201db" x="160" y="60"></rect><rect width="10" height="10" rx="0" fill="#00e5ff" x="180" y="60"></rect><rect width="10" height="10" rx="0" fill="#00e5ff" x="190" y="60"></rect><rect width="10" height="10" rx="0" fill="#00e5ff" x="200" y="60"></rect><rect width="10" height="10" rx="0" fill="#00e5ff" x="210" y="60"></rect><rect width="10" height="10" rx="0" fill="#00e5ff" x="220" y="60"></rect><rect width="10" height="10" rx="0" fill="#f201db" x="0" y="70"></rect><rect width="10" height="10" rx="0" fill="#f201db" x="10" y="70"></rect><rect width="10" height="10" rx="0" fill="#f201db" x="20" y="70"></rect><rect width="10" height="10" rx="0" fill="#f201db" x="30" y="70"></rect><rect width="10" height="10" rx="0" fill="#f201db" x="40" y="70"></rect><rect width="10" height="10" rx="0" fill="#f201db" x="120" y="70"></rect><rect width="10" height="10" rx="0" fill="#f201db" x="130" y="70"></rect><rect width="10" height="10" rx="0" fill="#f201db" x="140" y="70"></rect><rect width="10" height="10" rx="0" fill="#f201db" x="150" y="70"></rect><rect width="10" height="10" rx="0" fill="#f201db" x="160" y="70"></rect><rect width="10" height="10" rx="0" fill="#00e5ff" x="180" y="70"></rect><rect width="10" height="10" rx="0" fill="#00e5ff" x="190" y="70"></rect><rect width="10" height="10" rx="0" fill="#00e5ff" x="200" y="70"></rect><rect width="10" height="10" rx="0" fill="#00e5ff" x="210" y="70"></rect><rect width="10" height="10" rx="0" fill="#00e5ff" x="220" y="70"></rect><rect width="10" height="10" rx="0" fill="#f201db" x="0" y="80"></rect><rect width="10" height="10" rx="0" fill="#f201db" x="10" y="80"></rect><rect width="10" height="10" rx="0" fill="#f201db" x="20" y="80"></rect><rect width="10" height="10" rx="0" fill="#f201db" x="30" y="80"></rect><rect width="10" height="10" rx="0" fill="#f201db" x="40" y="80"></rect><rect width="10" height="10" rx="0" fill="#f201db" x="120" y="80"></rect><rect width="10" height="10" rx="0" fill="#f201db" x="130" y="80"></rect><rect width="10" height="10" rx="0" fill="#f201db" x="140" y="80"></rect><rect width="10" height="10" rx="0" fill="#f201db" x="150" y="80"></rect><rect width="10" height="10" rx="0" fill="#f201db" x="160" y="80"></rect><rect width="10" height="10" rx="0" fill="#00e5ff" x="180" y="80"></rect><rect width="10" height="10" rx="0" fill="#00e5ff" x="190" y="80"></rect><rect width="10" height="10" rx="0" fill="#00e5ff" x="200" y="80"></rect><rect width="10" height="10" rx="0" fill="#00e5ff" x="210" y="80"></rect><rect width="10" height="10" rx="0" fill="#00e5ff" x="220" y="80"></rect><rect width="10" height="10" rx="0" fill="#f201db" x="0" y="90"></rect><rect width="10" height="10" rx="0" fill="#f201db" x="10" y="90"></rect><rect width="10" height="10" rx="0" fill="#f201db" x="20" y="90"></rect><rect width="10" height="10" rx="0" fill="#f201db" x="30" y="90"></rect><rect width="10" height="10" rx="0" fill="#f201db" x="40" y="90"></rect><rect width="10" height="10" rx="0" fill="#f201db" x="120" y="90"></rect><rect width="10" height="10" rx="0" fill="#f201db" x="130" y="90"></rect><rect width="10" height="10" rx="0" fill="#f201db" x="140" y="90"></rect><rect width="10" height="10" rx="0" fill="#f201db" x="150" y="90"></rect><rect width="10" height="10" rx="0" fill="#f201db" x="160" y="90"></rect><rect width="10" height="10" rx="0" fill="#00e5ff" x="180" y="90"></rect><rect width="10" height="10" rx="0" fill="#00e5ff" x="190" y="90"></rect><rect width="10" height="10" rx="0" fill="#00e5ff" x="200" y="90"></rect><rect width="10" height="10" rx="0" fill="#00e5ff" x="210" y="90"></rect><rect width="10" height="10" rx="0" fill="#00e5ff" x="220" y="90"></rect><rect width="10" height="10" rx="0" fill="#f201db" x="0" y="100"></rect><rect width="10" height="10" rx="0" fill="#f201db" x="10" y="100"></rect><rect width="10" height="10" rx="0" fill="#f201db" x="20" y="100"></rect><rect width="10" height="10" rx="0" fill="#f201db" x="30" y="100"></rect><rect width="10" height="10" rx="0" fill="#f201db" x="40" y="100"></rect><rect width="10" height="10" rx="0" fill="#f201db" x="120" y="100"></rect><rect width="10" height="10" rx="0" fill="#f201db" x="130" y="100"></rect><rect width="10" height="10" rx="0" fill="#f201db" x="140" y="100"></rect><rect width="10" height="10" rx="0" fill="#f201db" x="150" y="100"></rect><rect width="10" height="10" rx="0" fill="#f201db" x="160" y="100"></rect><rect width="10" height="10" rx="0" fill="#00e5ff" x="180" y="100"></rect><rect width="10" height="10" rx="0" fill="#00e5ff" x="190" y="100"></rect><rect width="10" height="10" rx="0" fill="#00e5ff" x="200" y="100"></rect><rect width="10" height="10" rx="0" fill="#00e5ff" x="210" y="100"></rect><rect width="10" height="10" rx="0" fill="#00e5ff" x="220" y="100"></rect><rect width="10" height="10" rx="0" fill="#f201db" x="0" y="110"></rect><rect width="10" height="10" rx="0" fill="#f201db" x="10" y="110"></rect><rect width="10" height="10" rx="0" fill="#f201db" x="20" y="110"></rect><rect width="10" height="10" rx="0" fill="#f201db" x="30" y="110"></rect><rect width="10" height="10" rx="0" fill="#f201db" x="40" y="110"></rect><rect width="10" height="10" rx="0" fill="#f201db" x="50" y="110"></rect><rect width="10" height="10" rx="0" fill="#f201db" x="60" y="110"></rect><rect width="10" height="10" rx="0" fill="#f201db" x="70" y="110"></rect><rect width="10" height="10" rx="0" fill="#f201db" x="80" y="110"></rect><rect width="10" height="10" rx="0" fill="#f201db" x="90" y="110"></rect><rect width="10" height="10" rx="0" fill="#f201db" x="100" y="110"></rect><rect width="10" height="10" rx="0" fill="#f201db" x="110" y="110"></rect><rect width="10" height="10" rx="0" fill="#f201db" x="120" y="110"></rect><rect width="10" height="10" rx="0" fill="#f201db" x="130" y="110"></rect><rect width="10" height="10" rx="0" fill="#f201db" x="140" y="110"></rect><rect width="10" height="10" rx="0" fill="#f201db" x="150" y="110"></rect><rect width="10" height="10" rx="0" fill="#f201db" x="160" y="110"></rect><rect width="10" height="10" rx="0" fill="#00e5ff" x="180" y="110"></rect><rect width="10" height="10" rx="0" fill="#00e5ff" x="190" y="110"></rect><rect width="10" height="10" rx="0" fill="#00e5ff" x="200" y="110"></rect><rect width="10" height="10" rx="0" fill="#00e5ff" x="210" y="110"></rect><rect width="10" height="10" rx="0" fill="#00e5ff" x="220" y="110"></rect><rect width="10" height="10" rx="0" fill="#f201db" x="0" y="120"></rect><rect width="10" height="10" rx="0" fill="#f201db" x="10" y="120"></rect><rect width="10" height="10" rx="0" fill="#f201db" x="20" y="120"></rect><rect width="10" height="10" rx="0" fill="#f201db" x="30" y="120"></rect><rect width="10" height="10" rx="0" fill="#f201db" x="40" y="120"></rect><rect width="10" height="10" rx="0" fill="#f201db" x="50" y="120"></rect><rect width="10" height="10" rx="0" fill="#f201db" x="60" y="120"></rect><rect width="10" height="10" rx="0" fill="#f201db" x="70" y="120"></rect><rect width="10" height="10" rx="0" fill="#f201db" x="80" y="120"></rect><rect width="10" height="10" rx="0" fill="#f201db" x="90" y="120"></rect><rect width="10" height="10" rx="0" fill="#f201db" x="100" y="120"></rect><rect width="10" height="10" rx="0" fill="#f201db" x="110" y="120"></rect><rect width="10" height="10" rx="0" fill="#f201db" x="120" y="120"></rect><rect width="10" height="10" rx="0" fill="#f201db" x="130" y="120"></rect><rect width="10" height="10" rx="0" fill="#f201db" x="140" y="120"></rect><rect width="10" height="10" rx="0" fill="#f201db" x="150" y="120"></rect><rect width="10" height="10" rx="0" fill="#f201db" x="160" y="120"></rect><rect width="10" height="10" rx="0" fill="#00e5ff" x="180" y="120"></rect><rect width="10" height="10" rx="0" fill="#00e5ff" x="190" y="120"></rect><rect width="10" height="10" rx="0" fill="#00e5ff" x="200" y="120"></rect><rect width="10" height="10" rx="0" fill="#00e5ff" x="210" y="120"></rect><rect width="10" height="10" rx="0" fill="#00e5ff" x="220" y="120"></rect><rect width="10" height="10" rx="0" fill="#f201db" x="0" y="130"></rect><rect width="10" height="10" rx="0" fill="#f201db" x="10" y="130"></rect><rect width="10" height="10" rx="0" fill="#f201db" x="20" y="130"></rect><rect width="10" height="10" rx="0" fill="#f201db" x="30" y="130"></rect><rect width="10" height="10" rx="0" fill="#f201db" x="40" y="130"></rect><rect width="10" height="10" rx="0" fill="#f201db" x="50" y="130"></rect><rect width="10" height="10" rx="0" fill="#f201db" x="60" y="130"></rect><rect width="10" height="10" rx="0" fill="#f201db" x="70" y="130"></rect><rect width="10" height="10" rx="0" fill="#f201db" x="80" y="130"></rect><rect width="10" height="10" rx="0" fill="#f201db" x="90" y="130"></rect><rect width="10" height="10" rx="0" fill="#f201db" x="100" y="130"></rect><rect width="10" height="10" rx="0" fill="#f201db" x="110" y="130"></rect><rect width="10" height="10" rx="0" fill="#f201db" x="120" y="130"></rect><rect width="10" height="10" rx="0" fill="#f201db" x="130" y="130"></rect><rect width="10" height="10" rx="0" fill="#f201db" x="140" y="130"></rect><rect width="10" height="10" rx="0" fill="#f201db" x="150" y="130"></rect><rect width="10" height="10" rx="0" fill="#f201db" x="160" y="130"></rect><rect width="10" height="10" rx="0" fill="#00e5ff" x="180" y="130"></rect><rect width="10" height="10" rx="0" fill="#00e5ff" x="190" y="130"></rect><rect width="10" height="10" rx="0" fill="#00e5ff" x="200" y="130"></rect><rect width="10" height="10" rx="0" fill="#00e5ff" x="210" y="130"></rect><rect width="10" height="10" rx="0" fill="#00e5ff" x="220" y="130"></rect><rect width="10" height="10" rx="0" fill="#f201db" x="0" y="140"></rect><rect width="10" height="10" rx="0" fill="#f201db" x="10" y="140"></rect><rect width="10" height="10" rx="0" fill="#f201db" x="20" y="140"></rect><rect width="10" height="10" rx="0" fill="#f201db" x="30" y="140"></rect><rect width="10" height="10" rx="0" fill="#f201db" x="40" y="140"></rect><rect width="10" height="10" rx="0" fill="#f201db" x="50" y="140"></rect><rect width="10" height="10" rx="0" fill="#f201db" x="60" y="140"></rect><rect width="10" height="10" rx="0" fill="#f201db" x="70" y="140"></rect><rect width="10" height="10" rx="0" fill="#f201db" x="80" y="140"></rect><rect width="10" height="10" rx="0" fill="#f201db" x="90" y="140"></rect><rect width="10" height="10" rx="0" fill="#f201db" x="100" y="140"></rect><rect width="10" height="10" rx="0" fill="#f201db" x="110" y="140"></rect><rect width="10" height="10" rx="0" fill="#f201db" x="120" y="140"></rect><rect width="10" height="10" rx="0" fill="#f201db" x="130" y="140"></rect><rect width="10" height="10" rx="0" fill="#f201db" x="140" y="140"></rect><rect width="10" height="10" rx="0" fill="#f201db" x="150" y="140"></rect><rect width="10" height="10" rx="0" fill="#f201db" x="160" y="140"></rect><rect width="10" height="10" rx="0" fill="#00e5ff" x="180" y="140"></rect><rect width="10" height="10" rx="0" fill="#00e5ff" x="190" y="140"></rect><rect width="10" height="10" rx="0" fill="#00e5ff" x="200" y="140"></rect><rect width="10" height="10" rx="0" fill="#00e5ff" x="210" y="140"></rect><rect width="10" height="10" rx="0" fill="#00e5ff" x="220" y="140"></rect><rect width="10" height="10" rx="0" fill="#f201db" x="0" y="150"></rect><rect width="10" height="10" rx="0" fill="#f201db" x="10" y="150"></rect><rect width="10" height="10" rx="0" fill="#f201db" x="20" y="150"></rect><rect width="10" height="10" rx="0" fill="#f201db" x="30" y="150"></rect><rect width="10" height="10" rx="0" fill="#f201db" x="40" y="150"></rect><rect width="10" height="10" rx="0" fill="#f201db" x="50" y="150"></rect><rect width="10" height="10" rx="0" fill="#f201db" x="60" y="150"></rect><rect width="10" height="10" rx="0" fill="#f201db" x="70" y="150"></rect><rect width="10" height="10" rx="0" fill="#f201db" x="80" y="150"></rect><rect width="10" height="10" rx="0" fill="#f201db" x="90" y="150"></rect><rect width="10" height="10" rx="0" fill="#f201db" x="100" y="150"></rect><rect width="10" height="10" rx="0" fill="#f201db" x="110" y="150"></rect><rect width="10" height="10" rx="0" fill="#f201db" x="120" y="150"></rect><rect width="10" height="10" rx="0" fill="#f201db" x="130" y="150"></rect><rect width="10" height="10" rx="0" fill="#f201db" x="140" y="150"></rect><rect width="10" height="10" rx="0" fill="#f201db" x="150" y="150"></rect><rect width="10" height="10" rx="0" fill="#f201db" x="160" y="150"></rect><rect width="10" height="10" rx="0" fill="#00e5ff" x="180" y="150"></rect><rect width="10" height="10" rx="0" fill="#00e5ff" x="190" y="150"></rect><rect width="10" height="10" rx="0" fill="#00e5ff" x="200" y="150"></rect><rect width="10" height="10" rx="0" fill="#00e5ff" x="210" y="150"></rect><rect width="10" height="10" rx="0" fill="#00e5ff" x="220" y="150"></rect><rect width="10" height="10" rx="0" fill="#f201db" x="0" y="160"></rect><rect width="10" height="10" rx="0" fill="#f201db" x="10" y="160"></rect><rect width="10" height="10" rx="0" fill="#f201db" x="20" y="160"></rect><rect width="10" height="10" rx="0" fill="#f201db" x="30" y="160"></rect><rect width="10" height="10" rx="0" fill="#f201db" x="40" y="160"></rect><rect width="10" height="10" rx="0" fill="#01ff1a" x="50" y="160"></rect><rect width="10" height="10" rx="0" fill="#01ff1a" x="60" y="160"></rect><rect width="10" height="10" rx="0" fill="#01ff1a" x="150" y="160"></rect><rect width="10" height="10" rx="0" fill="#01ff1a" x="160" y="160"></rect><rect width="10" height="10" rx="0" fill="#01ff1a" x="170" y="160"></rect><rect width="10" height="10" rx="0" fill="#00e5ff" x="180" y="160"></rect><rect width="10" height="10" rx="0" fill="#00e5ff" x="190" y="160"></rect><rect width="10" height="10" rx="0" fill="#00e5ff" x="200" y="160"></rect><rect width="10" height="10" rx="0" fill="#00e5ff" x="210" y="160"></rect><rect width="10" height="10" rx="0" fill="#00e5ff" x="220" y="160"></rect><rect width="10" height="10" rx="0" fill="#f201db" x="0" y="170"></rect><rect width="10" height="10" rx="0" fill="#f201db" x="10" y="170"></rect><rect width="10" height="10" rx="0" fill="#f201db" x="20" y="170"></rect><rect width="10" height="10" rx="0" fill="#f201db" x="30" y="170"></rect><rect width="10" height="10" rx="0" fill="#f201db" x="40" y="170"></rect><rect width="10" height="10" rx="0" fill="#01ff1a" x="50" y="170"></rect><rect width="10" height="10" rx="0" fill="#01ff1a" x="60" y="170"></rect><rect width="10" height="10" rx="0" fill="#01ff1a" x="70" y="170"></rect><rect width="10" height="10" rx="0" fill="#01ff1a" x="140" y="170"></rect><rect width="10" height="10" rx="0" fill="#01ff1a" x="150" y="170"></rect><rect width="10" height="10" rx="0" fill="#01ff1a" x="160" y="170"></rect><rect width="10" height="10" rx="0" fill="#01ff1a" x="170" y="170"></rect><rect width="10" height="10" rx="0" fill="#00e5ff" x="180" y="170"></rect><rect width="10" height="10" rx="0" fill="#00e5ff" x="190" y="170"></rect><rect width="10" height="10" rx="0" fill="#00e5ff" x="200" y="170"></rect><rect width="10" height="10" rx="0" fill="#00e5ff" x="210" y="170"></rect><rect width="10" height="10" rx="0" fill="#00e5ff" x="220" y="170"></rect><rect width="10" height="10" rx="0" fill="#f201db" x="0" y="180"></rect><rect width="10" height="10" rx="0" fill="#f201db" x="10" y="180"></rect><rect width="10" height="10" rx="0" fill="#f201db" x="20" y="180"></rect><rect width="10" height="10" rx="0" fill="#f201db" x="30" y="180"></rect><rect width="10" height="10" rx="0" fill="#f201db" x="40" y="180"></rect><rect width="10" height="10" rx="0" fill="#01ff1a" x="50" y="180"></rect><rect width="10" height="10" rx="0" fill="#01ff1a" x="60" y="180"></rect><rect width="10" height="10" rx="0" fill="#01ff1a" x="70" y="180"></rect><rect width="10" height="10" rx="0" fill="#01ff1a" x="80" y="180"></rect><rect width="10" height="10" rx="0" fill="#01ff1a" x="130" y="180"></rect><rect width="10" height="10" rx="0" fill="#01ff1a" x="140" y="180"></rect><rect width="10" height="10" rx="0" fill="#01ff1a" x="150" y="180"></rect><rect width="10" height="10" rx="0" fill="#01ff1a" x="160" y="180"></rect><rect width="10" height="10" rx="0" fill="#01ff1a" x="170" y="180"></rect><rect width="10" height="10" rx="0" fill="#00e5ff" x="180" y="180"></rect><rect width="10" height="10" rx="0" fill="#00e5ff" x="190" y="180"></rect><rect width="10" height="10" rx="0" fill="#00e5ff" x="200" y="180"></rect><rect width="10" height="10" rx="0" fill="#00e5ff" x="210" y="180"></rect><rect width="10" height="10" rx="0" fill="#00e5ff" x="220" y="180"></rect><rect width="10" height="10" rx="0" fill="#f201db" x="0" y="190"></rect><rect width="10" height="10" rx="0" fill="#f201db" x="10" y="190"></rect><rect width="10" height="10" rx="0" fill="#f201db" x="20" y="190"></rect><rect width="10" height="10" rx="0" fill="#f201db" x="30" y="190"></rect><rect width="10" height="10" rx="0" fill="#f201db" x="40" y="190"></rect><rect width="10" height="10" rx="0" fill="#01ff1a" x="50" y="190"></rect><rect width="10" height="10" rx="0" fill="#01ff1a" x="60" y="190"></rect><rect width="10" height="10" rx="0" fill="#01ff1a" x="70" y="190"></rect><rect width="10" height="10" rx="0" fill="#01ff1a" x="80" y="190"></rect><rect width="10" height="10" rx="0" fill="#01ff1a" x="90" y="190"></rect><rect width="10" height="10" rx="0" fill="#01ff1a" x="120" y="190"></rect><rect width="10" height="10" rx="0" fill="#01ff1a" x="130" y="190"></rect><rect width="10" height="10" rx="0" fill="#01ff1a" x="140" y="190"></rect><rect width="10" height="10" rx="0" fill="#01ff1a" x="150" y="190"></rect><rect width="10" height="10" rx="0" fill="#01ff1a" x="160" y="190"></rect><rect width="10" height="10" rx="0" fill="#01ff1a" x="170" y="190"></rect><rect width="10" height="10" rx="0" fill="#00e5ff" x="180" y="190"></rect><rect width="10" height="10" rx="0" fill="#00e5ff" x="190" y="190"></rect><rect width="10" height="10" rx="0" fill="#00e5ff" x="200" y="190"></rect><rect width="10" height="10" rx="0" fill="#00e5ff" x="210" y="190"></rect><rect width="10" height="10" rx="0" fill="#00e5ff" x="220" y="190"></rect><rect width="10" height="10" rx="0" fill="#f201db" x="0" y="200"></rect><rect width="10" height="10" rx="0" fill="#f201db" x="10" y="200"></rect><rect width="10" height="10" rx="0" fill="#f201db" x="20" y="200"></rect><rect width="10" height="10" rx="0" fill="#f201db" x="30" y="200"></rect><rect width="10" height="10" rx="0" fill="#f201db" x="40" y="200"></rect><rect width="10" height="10" rx="0" fill="#01ff1a" x="50" y="200"></rect><rect width="10" height="10" rx="0" fill="#01ff1a" x="60" y="200"></rect><rect width="10" height="10" rx="0" fill="#01ff1a" x="70" y="200"></rect><rect width="10" height="10" rx="0" fill="#01ff1a" x="80" y="200"></rect><rect width="10" height="10" rx="0" fill="#01ff1a" x="90" y="200"></rect><rect width="10" height="10" rx="0" fill="#01ff1a" x="100" y="200"></rect><rect width="10" height="10" rx="0" fill="#01ff1a" x="110" y="200"></rect><rect width="10" height="10" rx="0" fill="#01ff1a" x="120" y="200"></rect><rect width="10" height="10" rx="0" fill="#01ff1a" x="130" y="200"></rect><rect width="10" height="10" rx="0" fill="#01ff1a" x="140" y="200"></rect><rect width="10" height="10" rx="0" fill="#01ff1a" x="150" y="200"></rect><rect width="10" height="10" rx="0" fill="#01ff1a" x="160" y="200"></rect><rect width="10" height="10" rx="0" fill="#01ff1a" x="170" y="200"></rect><rect width="10" height="10" rx="0" fill="#00e5ff" x="180" y="200"></rect><rect width="10" height="10" rx="0" fill="#00e5ff" x="190" y="200"></rect><rect width="10" height="10" rx="0" fill="#00e5ff" x="200" y="200"></rect><rect width="10" height="10" rx="0" fill="#00e5ff" x="210" y="200"></rect><rect width="10" height="10" rx="0" fill="#00e5ff" x="220" y="200"></rect><rect width="10" height="10" rx="0" fill="#f201db" x="0" y="210"></rect><rect width="10" height="10" rx="0" fill="#f201db" x="10" y="210"></rect><rect width="10" height="10" rx="0" fill="#f201db" x="20" y="210"></rect><rect width="10" height="10" rx="0" fill="#f201db" x="30" y="210"></rect><rect width="10" height="10" rx="0" fill="#f201db" x="40" y="210"></rect><rect width="10" height="10" rx="0" fill="#01ff1a" x="60" y="210"></rect><rect width="10" height="10" rx="0" fill="#01ff1a" x="70" y="210"></rect><rect width="10" height="10" rx="0" fill="#01ff1a" x="80" y="210"></rect><rect width="10" height="10" rx="0" fill="#01ff1a" x="90" y="210"></rect><rect width="10" height="10" rx="0" fill="#01ff1a" x="100" y="210"></rect><rect width="10" height="10" rx="0" fill="#01ff1a" x="110" y="210"></rect><rect width="10" height="10" rx="0" fill="#01ff1a" x="120" y="210"></rect><rect width="10" height="10" rx="0" fill="#01ff1a" x="130" y="210"></rect><rect width="10" height="10" rx="0" fill="#01ff1a" x="140" y="210"></rect><rect width="10" height="10" rx="0" fill="#01ff1a" x="150" y="210"></rect><rect width="10" height="10" rx="0" fill="#01ff1a" x="160" y="210"></rect><rect width="10" height="10" rx="0" fill="#00e5ff" x="180" y="210"></rect><rect width="10" height="10" rx="0" fill="#00e5ff" x="190" y="210"></rect><rect width="10" height="10" rx="0" fill="#00e5ff" x="200" y="210"></rect><rect width="10" height="10" rx="0" fill="#00e5ff" x="210" y="210"></rect><rect width="10" height="10" rx="0" fill="#00e5ff" x="220" y="210"></rect><rect width="10" height="10" rx="0" fill="#f201db" x="0" y="220"></rect><rect width="10" height="10" rx="0" fill="#f201db" x="10" y="220"></rect><rect width="10" height="10" rx="0" fill="#f201db" x="20" y="220"></rect><rect width="10" height="10" rx="0" fill="#f201db" x="30" y="220"></rect><rect width="10" height="10" rx="0" fill="#f201db" x="40" y="220"></rect><rect width="10" height="10" rx="0" fill="#01ff1a" x="70" y="220"></rect><rect width="10" height="10" rx="0" fill="#01ff1a" x="80" y="220"></rect><rect width="10" height="10" rx="0" fill="#01ff1a" x="90" y="220"></rect><rect width="10" height="10" rx="0" fill="#01ff1a" x="100" y="220"></rect><rect width="10" height="10" rx="0" fill="#01ff1a" x="110" y="220"></rect><rect width="10" height="10" rx="0" fill="#01ff1a" x="120" y="220"></rect><rect width="10" height="10" rx="0" fill="#01ff1a" x="130" y="220"></rect><rect width="10" height="10" rx="0" fill="#01ff1a" x="140" y="220"></rect><rect width="10" height="10" rx="0" fill="#01ff1a" x="150" y="220"></rect><rect width="10" height="10" rx="0" fill="#00e5ff" x="180" y="220"></rect><rect width="10" height="10" rx="0" fill="#00e5ff" x="190" y="220"></rect><rect width="10" height="10" rx="0" fill="#00e5ff" x="200" y="220"></rect><rect width="10" height="10" rx="0" fill="#00e5ff" x="210" y="220"></rect><rect width="10" height="10" rx="0" fill="#00e5ff" x="220" y="220"></rect><rect width="10" height="10" rx="0" fill="#f201db" x="0" y="230"></rect><rect width="10" height="10" rx="0" fill="#f201db" x="10" y="230"></rect><rect width="10" height="10" rx="0" fill="#f201db" x="20" y="230"></rect><rect width="10" height="10" rx="0" fill="#f201db" x="30" y="230"></rect><rect width="10" height="10" rx="0" fill="#f201db" x="40" y="230"></rect><rect width="10" height="10" rx="0" fill="#01ff1a" x="80" y="230"></rect><rect width="10" height="10" rx="0" fill="#01ff1a" x="90" y="230"></rect><rect width="10" height="10" rx="0" fill="#01ff1a" x="100" y="230"></rect><rect width="10" height="10" rx="0" fill="#01ff1a" x="110" y="230"></rect><rect width="10" height="10" rx="0" fill="#01ff1a" x="120" y="230"></rect><rect width="10" height="10" rx="0" fill="#01ff1a" x="130" y="230"></rect><rect width="10" height="10" rx="0" fill="#01ff1a" x="140" y="230"></rect><rect width="10" height="10" rx="0" fill="#00e5ff" x="180" y="230"></rect><rect width="10" height="10" rx="0" fill="#00e5ff" x="190" y="230"></rect><rect width="10" height="10" rx="0" fill="#00e5ff" x="200" y="230"></rect><rect width="10" height="10" rx="0" fill="#00e5ff" x="210" y="230"></rect><rect width="10" height="10" rx="0" fill="#00e5ff" x="220" y="230"></rect><rect width="10" height="10" rx="0" fill="#f201db" x="0" y="240"></rect><rect width="10" height="10" rx="0" fill="#f201db" x="10" y="240"></rect><rect width="10" height="10" rx="0" fill="#f201db" x="20" y="240"></rect><rect width="10" height="10" rx="0" fill="#f201db" x="30" y="240"></rect><rect width="10" height="10" rx="0" fill="#f201db" x="40" y="240"></rect><rect width="10" height="10" rx="0" fill="#01ff1a" x="80" y="240"></rect><rect width="10" height="10" rx="0" fill="#01ff1a" x="90" y="240"></rect><rect width="10" height="10" rx="0" fill="#01ff1a" x="100" y="240"></rect><rect width="10" height="10" rx="0" fill="#01ff1a" x="110" y="240"></rect><rect width="10" height="10" rx="0" fill="#01ff1a" x="120" y="240"></rect><rect width="10" height="10" rx="0" fill="#01ff1a" x="130" y="240"></rect><rect width="10" height="10" rx="0" fill="#01ff1a" x="140" y="240"></rect><rect width="10" height="10" rx="0" fill="#00e5ff" x="180" y="240"></rect><rect width="10" height="10" rx="0" fill="#00e5ff" x="190" y="240"></rect><rect width="10" height="10" rx="0" fill="#00e5ff" x="200" y="240"></rect><rect width="10" height="10" rx="0" fill="#00e5ff" x="210" y="240"></rect><rect width="10" height="10" rx="0" fill="#00e5ff" x="220" y="240"></rect><rect width="10" height="10" rx="0" fill="#f201db" x="0" y="250"></rect><rect width="10" height="10" rx="0" fill="#f201db" x="10" y="250"></rect><rect width="10" height="10" rx="0" fill="#f201db" x="20" y="250"></rect><rect width="10" height="10" rx="0" fill="#f201db" x="30" y="250"></rect><rect width="10" height="10" rx="0" fill="#f201db" x="40" y="250"></rect><rect width="10" height="10" rx="0" fill="#01ff1a" x="70" y="250"></rect><rect width="10" height="10" rx="0" fill="#01ff1a" x="80" y="250"></rect><rect width="10" height="10" rx="0" fill="#01ff1a" x="90" y="250"></rect><rect width="10" height="10" rx="0" fill="#01ff1a" x="100" y="250"></rect><rect width="10" height="10" rx="0" fill="#01ff1a" x="110" y="250"></rect><rect width="10" height="10" rx="0" fill="#01ff1a" x="120" y="250"></rect><rect width="10" height="10" rx="0" fill="#01ff1a" x="130" y="250"></rect><rect width="10" height="10" rx="0" fill="#01ff1a" x="140" y="250"></rect><rect width="10" height="10" rx="0" fill="#01ff1a" x="150" y="250"></rect><rect width="10" height="10" rx="0" fill="#00e5ff" x="180" y="250"></rect><rect width="10" height="10" rx="0" fill="#00e5ff" x="190" y="250"></rect><rect width="10" height="10" rx="0" fill="#00e5ff" x="200" y="250"></rect><rect width="10" height="10" rx="0" fill="#00e5ff" x="210" y="250"></rect><rect width="10" height="10" rx="0" fill="#00e5ff" x="220" y="250"></rect><rect width="10" height="10" rx="0" fill="#f201db" x="0" y="260"></rect><rect width="10" height="10" rx="0" fill="#f201db" x="10" y="260"></rect><rect width="10" height="10" rx="0" fill="#f201db" x="20" y="260"></rect><rect width="10" height="10" rx="0" fill="#f201db" x="30" y="260"></rect><rect width="10" height="10" rx="0" fill="#f201db" x="40" y="260"></rect><rect width="10" height="10" rx="0" fill="#01ff1a" x="60" y="260"></rect><rect width="10" height="10" rx="0" fill="#01ff1a" x="70" y="260"></rect><rect width="10" height="10" rx="0" fill="#01ff1a" x="80" y="260"></rect><rect width="10" height="10" rx="0" fill="#01ff1a" x="90" y="260"></rect><rect width="10" height="10" rx="0" fill="#01ff1a" x="100" y="260"></rect><rect width="10" height="10" rx="0" fill="#01ff1a" x="110" y="260"></rect><rect width="10" height="10" rx="0" fill="#01ff1a" x="120" y="260"></rect><rect width="10" height="10" rx="0" fill="#01ff1a" x="130" y="260"></rect><rect width="10" height="10" rx="0" fill="#01ff1a" x="140" y="260"></rect><rect width="10" height="10" rx="0" fill="#01ff1a" x="150" y="260"></rect><rect width="10" height="10" rx="0" fill="#01ff1a" x="160" y="260"></rect><rect width="10" height="10" rx="0" fill="#00e5ff" x="180" y="260"></rect><rect width="10" height="10" rx="0" fill="#00e5ff" x="190" y="260"></rect><rect width="10" height="10" rx="0" fill="#00e5ff" x="200" y="260"></rect><rect width="10" height="10" rx="0" fill="#00e5ff" x="210" y="260"></rect><rect width="10" height="10" rx="0" fill="#00e5ff" x="220" y="260"></rect><rect width="10" height="10" rx="0" fill="#f201db" x="0" y="270"></rect><rect width="10" height="10" rx="0" fill="#f201db" x="10" y="270"></rect><rect width="10" height="10" rx="0" fill="#f201db" x="20" y="270"></rect><rect width="10" height="10" rx="0" fill="#f201db" x="30" y="270"></rect><rect width="10" height="10" rx="0" fill="#f201db" x="40" y="270"></rect><rect width="10" height="10" rx="0" fill="#01ff1a" x="50" y="270"></rect><rect width="10" height="10" rx="0" fill="#01ff1a" x="60" y="270"></rect><rect width="10" height="10" rx="0" fill="#01ff1a" x="70" y="270"></rect><rect width="10" height="10" rx="0" fill="#01ff1a" x="80" y="270"></rect><rect width="10" height="10" rx="0" fill="#01ff1a" x="90" y="270"></rect><rect width="10" height="10" rx="0" fill="#01ff1a" x="100" y="270"></rect><rect width="10" height="10" rx="0" fill="#01ff1a" x="110" y="270"></rect><rect width="10" height="10" rx="0" fill="#01ff1a" x="120" y="270"></rect><rect width="10" height="10" rx="0" fill="#01ff1a" x="130" y="270"></rect><rect width="10" height="10" rx="0" fill="#01ff1a" x="140" y="270"></rect><rect width="10" height="10" rx="0" fill="#01ff1a" x="150" y="270"></rect><rect width="10" height="10" rx="0" fill="#01ff1a" x="160" y="270"></rect><rect width="10" height="10" rx="0" fill="#01ff1a" x="170" y="270"></rect><rect width="10" height="10" rx="0" fill="#00e5ff" x="180" y="270"></rect><rect width="10" height="10" rx="0" fill="#00e5ff" x="190" y="270"></rect><rect width="10" height="10" rx="0" fill="#00e5ff" x="200" y="270"></rect><rect width="10" height="10" rx="0" fill="#00e5ff" x="210" y="270"></rect><rect width="10" height="10" rx="0" fill="#00e5ff" x="220" y="270"></rect><rect width="10" height="10" rx="0" fill="#00e5ff" x="230" y="270"></rect><rect width="10" height="10" rx="0" fill="#00e5ff" x="240" y="270"></rect><rect width="10" height="10" rx="0" fill="#00e5ff" x="250" y="270"></rect><rect width="10" height="10" rx="0" fill="#00e5ff" x="260" y="270"></rect><rect width="10" height="10" rx="0" fill="#00e5ff" x="270" y="270"></rect><rect width="10" height="10" rx="0" fill="#00e5ff" x="280" y="270"></rect><rect width="10" height="10" rx="0" fill="#00e5ff" x="290" y="270"></rect><rect width="10" height="10" rx="0" fill="#00e5ff" x="300" y="270"></rect><rect width="10" height="10" rx="0" fill="#00e5ff" x="310" y="270"></rect><rect width="10" height="10" rx="0" fill="#f201db" x="0" y="280"></rect><rect width="10" height="10" rx="0" fill="#f201db" x="10" y="280"></rect><rect width="10" height="10" rx="0" fill="#f201db" x="20" y="280"></rect><rect width="10" height="10" rx="0" fill="#f201db" x="30" y="280"></rect><rect width="10" height="10" rx="0" fill="#f201db" x="40" y="280"></rect><rect width="10" height="10" rx="0" fill="#01ff1a" x="50" y="280"></rect><rect width="10" height="10" rx="0" fill="#01ff1a" x="60" y="280"></rect><rect width="10" height="10" rx="0" fill="#01ff1a" x="70" y="280"></rect><rect width="10" height="10" rx="0" fill="#01ff1a" x="80" y="280"></rect><rect width="10" height="10" rx="0" fill="#01ff1a" x="90" y="280"></rect><rect width="10" height="10" rx="0" fill="#01ff1a" x="120" y="280"></rect><rect width="10" height="10" rx="0" fill="#01ff1a" x="130" y="280"></rect><rect width="10" height="10" rx="0" fill="#01ff1a" x="140" y="280"></rect><rect width="10" height="10" rx="0" fill="#01ff1a" x="150" y="280"></rect><rect width="10" height="10" rx="0" fill="#01ff1a" x="160" y="280"></rect><rect width="10" height="10" rx="0" fill="#01ff1a" x="170" y="280"></rect><rect width="10" height="10" rx="0" fill="#00e5ff" x="180" y="280"></rect><rect width="10" height="10" rx="0" fill="#00e5ff" x="190" y="280"></rect><rect width="10" height="10" rx="0" fill="#00e5ff" x="200" y="280"></rect><rect width="10" height="10" rx="0" fill="#00e5ff" x="210" y="280"></rect><rect width="10" height="10" rx="0" fill="#00e5ff" x="220" y="280"></rect><rect width="10" height="10" rx="0" fill="#00e5ff" x="230" y="280"></rect><rect width="10" height="10" rx="0" fill="#00e5ff" x="240" y="280"></rect><rect width="10" height="10" rx="0" fill="#00e5ff" x="250" y="280"></rect><rect width="10" height="10" rx="0" fill="#00e5ff" x="260" y="280"></rect><rect width="10" height="10" rx="0" fill="#00e5ff" x="270" y="280"></rect><rect width="10" height="10" rx="0" fill="#00e5ff" x="280" y="280"></rect><rect width="10" height="10" rx="0" fill="#00e5ff" x="290" y="280"></rect><rect width="10" height="10" rx="0" fill="#00e5ff" x="300" y="280"></rect><rect width="10" height="10" rx="0" fill="#00e5ff" x="310" y="280"></rect><rect width="10" height="10" rx="0" fill="#f201db" x="0" y="290"></rect><rect width="10" height="10" rx="0" fill="#f201db" x="10" y="290"></rect><rect width="10" height="10" rx="0" fill="#f201db" x="20" y="290"></rect><rect width="10" height="10" rx="0" fill="#f201db" x="30" y="290"></rect><rect width="10" height="10" rx="0" fill="#f201db" x="40" y="290"></rect><rect width="10" height="10" rx="0" fill="#01ff1a" x="50" y="290"></rect><rect width="10" height="10" rx="0" fill="#01ff1a" x="60" y="290"></rect><rect width="10" height="10" rx="0" fill="#01ff1a" x="70" y="290"></rect><rect width="10" height="10" rx="0" fill="#01ff1a" x="80" y="290"></rect><rect width="10" height="10" rx="0" fill="#01ff1a" x="130" y="290"></rect><rect width="10" height="10" rx="0" fill="#01ff1a" x="140" y="290"></rect><rect width="10" height="10" rx="0" fill="#01ff1a" x="150" y="290"></rect><rect width="10" height="10" rx="0" fill="#01ff1a" x="160" y="290"></rect><rect width="10" height="10" rx="0" fill="#01ff1a" x="170" y="290"></rect><rect width="10" height="10" rx="0" fill="#00e5ff" x="180" y="290"></rect><rect width="10" height="10" rx="0" fill="#00e5ff" x="190" y="290"></rect><rect width="10" height="10" rx="0" fill="#00e5ff" x="200" y="290"></rect><rect width="10" height="10" rx="0" fill="#00e5ff" x="210" y="290"></rect><rect width="10" height="10" rx="0" fill="#00e5ff" x="220" y="290"></rect><rect width="10" height="10" rx="0" fill="#00e5ff" x="230" y="290"></rect><rect width="10" height="10" rx="0" fill="#00e5ff" x="240" y="290"></rect><rect width="10" height="10" rx="0" fill="#00e5ff" x="250" y="290"></rect><rect width="10" height="10" rx="0" fill="#00e5ff" x="260" y="290"></rect><rect width="10" height="10" rx="0" fill="#00e5ff" x="270" y="290"></rect><rect width="10" height="10" rx="0" fill="#00e5ff" x="280" y="290"></rect><rect width="10" height="10" rx="0" fill="#00e5ff" x="290" y="290"></rect><rect width="10" height="10" rx="0" fill="#00e5ff" x="300" y="290"></rect><rect width="10" height="10" rx="0" fill="#00e5ff" x="310" y="290"></rect><rect width="10" height="10" rx="0" fill="#f201db" x="0" y="300"></rect><rect width="10" height="10" rx="0" fill="#f201db" x="10" y="300"></rect><rect width="10" height="10" rx="0" fill="#f201db" x="20" y="300"></rect><rect width="10" height="10" rx="0" fill="#f201db" x="30" y="300"></rect><rect width="10" height="10" rx="0" fill="#f201db" x="40" y="300"></rect><rect width="10" height="10" rx="0" fill="#01ff1a" x="50" y="300"></rect><rect width="10" height="10" rx="0" fill="#01ff1a" x="60" y="300"></rect><rect width="10" height="10" rx="0" fill="#01ff1a" x="70" y="300"></rect><rect width="10" height="10" rx="0" fill="#01ff1a" x="140" y="300"></rect><rect width="10" height="10" rx="0" fill="#01ff1a" x="150" y="300"></rect><rect width="10" height="10" rx="0" fill="#01ff1a" x="160" y="300"></rect><rect width="10" height="10" rx="0" fill="#01ff1a" x="170" y="300"></rect><rect width="10" height="10" rx="0" fill="#00e5ff" x="180" y="300"></rect><rect width="10" height="10" rx="0" fill="#00e5ff" x="190" y="300"></rect><rect width="10" height="10" rx="0" fill="#00e5ff" x="200" y="300"></rect><rect width="10" height="10" rx="0" fill="#00e5ff" x="210" y="300"></rect><rect width="10" height="10" rx="0" fill="#00e5ff" x="220" y="300"></rect><rect width="10" height="10" rx="0" fill="#00e5ff" x="230" y="300"></rect><rect width="10" height="10" rx="0" fill="#00e5ff" x="240" y="300"></rect><rect width="10" height="10" rx="0" fill="#00e5ff" x="250" y="300"></rect><rect width="10" height="10" rx="0" fill="#00e5ff" x="260" y="300"></rect><rect width="10" height="10" rx="0" fill="#00e5ff" x="270" y="300"></rect><rect width="10" height="10" rx="0" fill="#00e5ff" x="280" y="300"></rect><rect width="10" height="10" rx="0" fill="#00e5ff" x="290" y="300"></rect><rect width="10" height="10" rx="0" fill="#00e5ff" x="300" y="300"></rect><rect width="10" height="10" rx="0" fill="#00e5ff" x="310" y="300"></rect><rect width="10" height="10" rx="0" fill="#f201db" x="0" y="310"></rect><rect width="10" height="10" rx="0" fill="#f201db" x="10" y="310"></rect><rect width="10" height="10" rx="0" fill="#f201db" x="20" y="310"></rect><rect width="10" height="10" rx="0" fill="#f201db" x="30" y="310"></rect><rect width="10" height="10" rx="0" fill="#f201db" x="40" y="310"></rect><rect width="10" height="10" rx="0" fill="#01ff1a" x="50" y="310"></rect><rect width="10" height="10" rx="0" fill="#01ff1a" x="60" y="310"></rect><rect width="10" height="10" rx="0" fill="#01ff1a" x="150" y="310"></rect><rect width="10" height="10" rx="0" fill="#01ff1a" x="160" y="310"></rect><rect width="10" height="10" rx="0" fill="#01ff1a" x="170" y="310"></rect><rect width="10" height="10" rx="0" fill="#00e5ff" x="180" y="310"></rect><rect width="10" height="10" rx="0" fill="#00e5ff" x="190" y="310"></rect><rect width="10" height="10" rx="0" fill="#00e5ff" x="200" y="310"></rect><rect width="10" height="10" rx="0" fill="#00e5ff" x="210" y="310"></rect><rect width="10" height="10" rx="0" fill="#00e5ff" x="220" y="310"></rect><rect width="10" height="10" rx="0" fill="#00e5ff" x="230" y="310"></rect><rect width="10" height="10" rx="0" fill="#00e5ff" x="240" y="310"></rect><rect width="10" height="10" rx="0" fill="#00e5ff" x="250" y="310"></rect><rect width="10" height="10" rx="0" fill="#00e5ff" x="260" y="310"></rect><rect width="10" height="10" rx="0" fill="#00e5ff" x="270" y="310"></rect><rect width="10" height="10" rx="0" fill="#00e5ff" x="280" y="310"></rect><rect width="10" height="10" rx="0" fill="#00e5ff" x="290" y="310"></rect><rect width="10" height="10" rx="0" fill="#00e5ff" x="300" y="310"></rect><rect width="10" height="10" rx="0" fill="#00e5ff" x="310" y="310"></rect></svg>